<?xml version="1.0" encoding="UTF-8"?>
<svg width="1200" height="600" viewBox="0 0 1200 600" fill="none" xmlns="http://www.w3.org/2000/svg">
  <defs>
    <linearGradient id="g" x1="0" y1="0" x2="1" y2="1">
      <stop offset="0%" stop-color="#7C5CFF" />
      <stop offset="100%" stop-color="#00E0FF" />
    </linearGradient>
  </defs>
  <rect width="1200" height="600" rx="24" fill="#101523"/>
  <g opacity="0.6">
    <circle cx="220" cy="140" r="220" fill="#7C5CFF" fill-opacity="0.18"/>
    <circle cx="940" cy="140" r="220" fill="#00E0FF" fill-opacity="0.18"/>
    <circle cx="600" cy="560" r="320" fill="#FF7CE5" fill-opacity="0.14"/>
  </g>
  <rect x="60" y="60" width="1080" height="480" rx="18" fill="#0D1220" stroke="rgba(255,255,255,0.12)"/>
  <text x="600" y="170" text-anchor="middle" font-family="Inter, Arial" font-size="32" font-weight="800" fill="url(#g)">Blinkit Sales Dashboard</text>
  <g>
    <rect x="140" y="240" width="320" height="240" rx="10" fill="#141B2E" stroke="rgba(255,255,255,0.08)"/>
    <rect x="500" y="240" width="560" height="110" rx="10" fill="#141B2E" stroke="rgba(255,255,255,0.08)"/>
    <rect x="500" y="370" width="560" height="110" rx="10" fill="#141B2E" stroke="rgba(255,255,255,0.08)"/>
  </g>
  <g>
    <rect x="180" y="430" width="40" height="30" fill="#7C5CFF" rx="4"/>
    <rect x="240" y="400" width="40" height="60" fill="#00E0FF" rx="4"/>
    <rect x="300" y="360" width="40" height="100" fill="#FF7CE5" rx="4"/>
    <rect x="360" y="310" width="40" height="150" fill="#7C5CFF" rx="4"/>
  </g>
</svg>


